<svg width="1717" height="206" viewBox="0 0 1717 206" fill="none" xmlns="http://www.w3.org/2000/svg">
<path d="M93.6479 0H183L89.3521 206H0L93.6479 0Z" fill="#0095EA"/>
<path d="M171.58 102H83L129.42 206H218L171.58 102Z" fill="#8BCFFF"/>
<path d="M217.42 1H306L259.58 102H171L217.42 1Z" fill="#8BCFFF"/>
<path d="M942.5 2H977.5L979 3.5L978.5 43L978 3H942.5L942 3.5V202.5H941V3.5L942.5 2Z" fill="white"/>
<path d="M1224.5 3L1225 23.5L1223.5 25H1196L1195.5 49L1195 24H1224L1224.5 3Z" fill="white"/>
<path d="M423.5 5L424 102L427.5 100L425.5 103L423 102.5L423.5 5Z" fill="white" stroke="white"/>
<path d="M1443.5 5L1444 72.5H1443L1443.5 5Z" fill="white"/>
<path d="M1716.5 5L1717 74.5H1716L1716.5 5Z" fill="white"/>
<path d="M1008.5 10L1009 28.5H1008L1008.5 10Z" fill="white"/>
<path d="M521.5 18L517.5 23" stroke="white"/>
<path d="M579.5 18L575.5 23" stroke="white"/>
<path d="M701.5 20L700.5 22" stroke="white"/>
<path d="M756.5 20L757 22.5H756L756.5 20Z" fill="white" stroke="white"/>
<path d="M658.5 22L657.5 24" stroke="white"/>
<path d="M795.5 22L796 23.5H795L795.5 22Z" fill="white" stroke="white"/>
<path d="M834.5 22L835 23.5H834L834.5 22Z" fill="white" stroke="white"/>
<path d="M699.5 23L697.5 26" stroke="white"/>
<path d="M872.5 23L873 24.5H872L872.5 23Z" fill="white" stroke="white"/>
<path d="M572.5 24L567.5 30" stroke="white"/>
<path d="M757.5 24L758 26.5H757L757.5 24Z" fill="white" stroke="white"/>
<path d="M1262.5 24L1285 24.5L1262.5 25V24Z" fill="white"/>
<path d="M513.5 25L509.5 30" stroke="white"/>
<path d="M656.5 25L655.5 27" stroke="white"/>
<path d="M796.5 26L797 28.5H796L796.5 26Z" fill="white" stroke="white"/>
<path d="M835.5 26L836 27.5H835L835.5 26Z" fill="white" stroke="white"/>
<path d="M873.5 26L874 28.5H873L873.5 26Z" fill="white" stroke="white"/>
<path d="M696.5 27L695.5 29" stroke="white"/>
<path d="M654.5 28L653.5 30" stroke="white"/>
<path d="M758.5 28L759 31.5H758L758.5 28Z" fill="white" stroke="white"/>
<path d="M836.5 29L837 31.5H836L836.5 29Z" fill="white" stroke="white"/>
<path d="M1066.5 29L1067 39.5L1065.5 41H1011.5V40H1065.5L1066 39.5L1066.5 29Z" fill="white"/>
<path d="M1103 29L1105 29.5L1104 30.5V40H1160V60H1104.5L1104 60.5V69.5L1104.5 71L1103 70.5V60.5L1104.5 59H1159V41.5L1158.5 41H1104.5L1103 39.5V29Z" fill="white"/>
<path d="M694.5 30L693.5 32" stroke="white"/>
<path d="M797.5 30L798 31.5H797L797.5 30Z" fill="white" stroke="white"/>
<path d="M874.5 30L875 31.5H874L874.5 30Z" fill="white" stroke="white"/>
<path d="M1332.5 30H1405.5L1407 31.5V59.5L1406.5 60H1399.5V59C1403.7 59.5333 1405.87 59.3667 1406 58.5V31H1332.5V30Z" fill="white"/>
<path d="M1519.5 30H1678.5L1680 31.5L1679.5 73L1679 31H1519.5L1519 31.5V47.5L1519.5 49L1518 48.5V31.5L1519.5 30Z" fill="white"/>
<path d="M652.5 31L651.5 33" stroke="white"/>
<path d="M505.5 32L501.5 37" stroke="white"/>
<path d="M563.5 32L560.5 36" stroke="white"/>
<path d="M730.5 32V33" stroke="white"/>
<path d="M692.5 33L691.5 35" stroke="white"/>
<path d="M650.5 34L649.5 36" stroke="white"/>
<path d="M875.5 34L876 35.5H875L875.5 34Z" fill="white" stroke="white"/>
<path d="M914.5 35L917 35.5L914.5 36V35Z" fill="white"/>
<path d="M930.5 35L931 151.5L929.5 153H906.5V152H929.5L930 151.5L930.5 35Z" fill="white"/>
<path d="M1331.5 35L1332 83.5H1331L1331.5 35Z" fill="white"/>
<path d="M690.5 36L689.5 38" stroke="white"/>
<path d="M557.5 37L552.5 43" stroke="white"/>
<path d="M498.5 38L493.5 44" stroke="white"/>
<path d="M647.5 38L646.5 40" stroke="white"/>
<path d="M876.5 38L877 40.5H876L876.5 38Z" fill="white" stroke="white"/>
<path d="M688.5 39L687.5 41" stroke="white"/>
<path d="M645.5 41L644.5 43" stroke="white"/>
<path d="M686.5 42L685.5 44" stroke="white"/>
<path d="M877.5 42L878 44.5H877L877.5 42Z" fill="white" stroke="white"/>
<path d="M1011.5 42L1012 57.5H1011L1011.5 42Z" fill="white"/>
<path d="M643.5 44L642.5 46" stroke="white"/>
<path d="M490.5 45L486.5 50" stroke="white"/>
<path d="M548.5 45L545.5 49" stroke="white"/>
<path d="M683.5 46L682.5 48" stroke="white"/>
<path d="M878.5 46L879 48.5H878L878.5 46Z" fill="white" stroke="white"/>
<path d="M641.5 47L640.5 49" stroke="white"/>
<path d="M1653.5 48L1655 49.5V72.5L1653.5 74H1519V88.5L1519.5 89H1717V203L1659 202.5L1716 202V90H1519.5L1518 88.5V74.5L1519.5 73H1654V49.5L1653.5 48Z" fill="white"/>
<path d="M681.5 49L680.5 51" stroke="white"/>
<path d="M1224.5 49L1225 98.5L1223 99.5L1224 98.5L1224.5 49Z" fill="white"/>
<path d="M639.5 50L637.5 53" stroke="white"/>
<path d="M879.5 50L880 52.5H879L879.5 50Z" fill="white" stroke="white"/>
<path d="M541.5 51L537.5 56" stroke="white"/>
<path d="M999.5 51L1000 54.5H999L999.5 51Z" fill="white"/>
<path d="M482.5 52L478.5 57" stroke="white"/>
<path d="M679.5 52L678.5 54" stroke="white"/>
<path d="M636.5 54L635.5 56" stroke="white"/>
<path d="M677.5 55L676.5 57" stroke="white"/>
<path d="M880.5 55L881 57H804.5L803.5 58L804.5 56H879.5L880.5 55Z" fill="white" stroke="white"/>
<path d="M730.5 56H764.5L765 57.5L766 60.5H765L763.5 57H730.5V56Z" fill="white" stroke="white"/>
<path d="M534.5 57L530.5 62" stroke="white"/>
<path d="M634.5 57L633.5 59" stroke="white"/>
<path d="M1261.5 57L1262 65.5H1261L1261.5 57Z" fill="white"/>
<path d="M675.5 58L674.5 60" stroke="white"/>
<path d="M474.5 59L470.5 64" stroke="white"/>
<path d="M804.5 59L805 62.5H804L804.5 59Z" fill="white" stroke="white"/>
<path d="M1011.5 59H1066.5L1067 60.5L1065.5 60H1011.5V59Z" fill="white"/>
<path d="M632.5 60L631.5 62" stroke="white"/>
<path d="M1363.5 60L1364 80H1434.5L1440.5 74L1434.5 81H1363.5L1363 80.5L1363.5 60Z" fill="white"/>
<path d="M673.5 61L671.5 64" stroke="white"/>
<path d="M527.5 63L523.5 68" stroke="white"/>
<path d="M766.5 63L767 64.5H766L766.5 63Z" fill="white" stroke="white"/>
<path d="M629.5 64V65" stroke="white"/>
<path d="M805.5 64L806 66.5H805L805.5 64Z" fill="white" stroke="white"/>
<path d="M670.5 65V66" stroke="white"/>
<path d="M466.5 66L462.5 71" stroke="white"/>
<path d="M628.5 66L629 95.5H628L628.5 66Z" fill="white" stroke="white"/>
<path d="M669.5 67L668.5 69" stroke="white"/>
<path d="M767.5 67L768 69.5H767L767.5 67Z" fill="white" stroke="white"/>
<path d="M978 67L1000 67.5L979 68L978.5 203L978 67Z" fill="white"/>
<path d="M806.5 69L807 71.5H806L806.5 69Z" fill="white" stroke="white"/>
<path d="M1066.5 69L1067 70.5H1066L1066.5 69Z" fill="white"/>
<path d="M519.5 70L515.5 75" stroke="white"/>
<path d="M667.5 70L668.5 72" stroke="white"/>
<path d="M680.5 71L688 71.5L680.5 72V71Z" fill="white" stroke="white"/>
<path d="M719.5 71L720 86.5H719L719.5 71Z" fill="white" stroke="white"/>
<path d="M1004.5 71L1005 88.5H1004L1004.5 71Z" fill="white"/>
<path d="M1165.5 71L1166 90.5H1165L1165.5 71Z" fill="white"/>
<path d="M459.5 72L455.5 77" stroke="white"/>
<path d="M768.5 72L769 73.5H768L768.5 72Z" fill="white" stroke="white"/>
<path d="M807.5 73L808 75.5H807L807.5 73Z" fill="white" stroke="white"/>
<path d="M1261.5 74L1262 79.5H1261L1261.5 74Z" fill="white"/>
<path d="M512.5 76L508.5 81" stroke="white"/>
<path d="M769.5 76L770 77.5H769L769.5 76Z" fill="white" stroke="white"/>
<path d="M808.5 77L809.5 78L876 78.5L809.5 79L808.5 77Z" fill="white" stroke="white"/>
<path d="M1280.5 77L1282 77.5L1280.5 78V77Z" fill="white"/>
<path d="M730.5 78L768 78.5L730.5 79V78Z" fill="white" stroke="white"/>
<path d="M878.5 78V79" stroke="white"/>
<path d="M880.5 78L881 101.5L879.5 103H814.5V102H880L880.5 78Z" fill="white" stroke="white"/>
<path d="M451.5 79L446.5 85" stroke="white"/>
<path d="M1275.5 79L1277 79.5L1275.5 80V79Z" fill="white"/>
<path d="M1270.5 81L1272 81.5L1270.5 82V81Z" fill="white"/>
<path d="M505.5 82L501.5 87" stroke="white"/>
<path d="M1265.5 83L1267 83.5L1265.5 84V83Z" fill="white"/>
<path d="M1262.5 84L1264 84.5L1262.5 85V84Z" fill="white"/>
<path d="M443.5 86L439.5 91" stroke="white"/>
<path d="M718.5 88L710.5 97" stroke="white"/>
<path d="M497.5 89L494.5 93" stroke="white"/>
<path d="M1331.5 89L1332 91.5H1331L1331.5 89Z" fill="white"/>
<path d="M1067.5 91L1103 91.5L1067.5 92V91Z" fill="white"/>
<path d="M435.5 93L431.5 98" stroke="white"/>
<path d="M1332.5 93H1444V131.5L1410 164.5L1443 131.5V94H1332.5V93Z" fill="white"/>
<path d="M491.5 94L486.5 100" stroke="white"/>
<path d="M501.5 96L505.5 101" stroke="white"/>
<path d="M658.5 96L662 96.5L658.5 97V96Z" fill="white" stroke="white"/>
<path d="M663.5 96L664 97.5L641 119.5L663.5 96Z" fill="white" stroke="white"/>
<path d="M498.5 97L492.5 104" stroke="white"/>
<path d="M483.5 101L478.5 107" stroke="white"/>
<path d="M1218.5 101L1220 101.5L1218.5 102V101Z" fill="white"/>
<path d="M703.5 102L692.5 114" stroke="white"/>
<path d="M730.5 102H773.5L775 103.5L773.5 103H730.5V102Z" fill="white" stroke="white"/>
<path d="M1021.5 102L1029 102.5L1021.5 103V102Z" fill="white"/>
<path d="M1145.5 102L1154 102.5L1145.5 103V102Z" fill="white"/>
<path d="M1213.5 103L1215 103.5L1213.5 104V103Z" fill="white"/>
<path d="M1283.5 103L1285 103.5L1283.5 104V103Z" fill="white"/>
<path d="M775.5 105V106" stroke="white"/>
<path d="M814.5 105L818 110.5L816 109.5L814.5 105Z" fill="white" stroke="white"/>
<path d="M1208.5 105L1210 105.5L1208.5 106V105Z" fill="white"/>
<path d="M1278.5 105L1280 105.5L1278.5 106V105Z" fill="white"/>
<path d="M488.5 106L483.5 112" stroke="white"/>
<path d="M776.5 107L777 108.5H776L776.5 107Z" fill="white" stroke="white"/>
<path d="M1203.5 107L1205 107.5L1201.5 109V108L1203.5 107Z" fill="white"/>
<path d="M475.5 108L470.5 114" stroke="white"/>
<path d="M513.5 109L521.5 118" stroke="white"/>
<path d="M1011.5 109L1009 112.5L1008.5 203L1008 112.5L1011.5 109Z" fill="white"/>
<path d="M1268.5 109L1270 109.5L1268.5 110V109Z" fill="white"/>
<path d="M777.5 110V111" stroke="white"/>
<path d="M1196.5 110L1198 110.5L1196 111L1195.5 139L1195 111.5L1196.5 110Z" fill="white"/>
<path d="M1263.5 111L1265 111.5L1262.5 113L1263.5 111Z" fill="white"/>
<path d="M778.5 112V113" stroke="white"/>
<path d="M818.5 112V113" stroke="white"/>
<path d="M1519.5 113H1678.5L1680 114.5L1679.5 178L1679 114H1519.5L1519 114.5V136.5H1518V114.5L1519.5 113Z" fill="white"/>
<path d="M779.5 114L781 117.5H780L779.5 114Z" fill="white" stroke="white"/>
<path d="M819.5 114V115" stroke="white"/>
<path d="M858.5 114V115" stroke="white"/>
<path d="M862.5 114L865 114.5L862.5 115V114Z" fill="white" stroke="white"/>
<path d="M467.5 115L463.5 120" stroke="white"/>
<path d="M478.5 115L473.5 121" stroke="white"/>
<path d="M856.5 115V116" stroke="white"/>
<path d="M866.5 115V116" stroke="white"/>
<path d="M820.5 116V117" stroke="white"/>
<path d="M854.5 116V117" stroke="white"/>
<path d="M868.5 116V117" stroke="white"/>
<path d="M851.5 117L853 117.5L851.5 118V117Z" fill="white" stroke="white"/>
<path d="M871.5 117L873 117.5L871.5 118V117Z" fill="white" stroke="white"/>
<path d="M821.5 118V119" stroke="white"/>
<path d="M849.5 118V119" stroke="white"/>
<path d="M874.5 118L877 118.5L874.5 119V118Z" fill="white" stroke="white"/>
<path d="M879.5 118L881 119.5V137.5L879 138.5L880 137.5V119.5L879.5 118Z" fill="white" stroke="white"/>
<path d="M1332.5 118H1405.5L1407 119.5V126.5L1389.5 144L1406 126.5V119.5L1405.5 119H1332.5V118Z" fill="white"/>
<path d="M685.5 119L678 127.5L677.5 129L677 127.5L685.5 119Z" fill="white" stroke="white"/>
<path d="M781.5 119V120" stroke="white"/>
<path d="M847.5 119V120" stroke="white"/>
<path d="M822.5 120V121" stroke="white"/>
<path d="M845.5 120V121" stroke="white"/>
<path d="M1261.5 120L1262 121.5H1261L1261.5 120Z" fill="white"/>
<path d="M782.5 121V122" stroke="white"/>
<path d="M843.5 121V122" stroke="white"/>
<path d="M459.5 122L457.5 125" stroke="white"/>
<path d="M823.5 122V123" stroke="white"/>
<path d="M840.5 122L842 122.5L840.5 123V122Z" fill="white" stroke="white"/>
<path d="M1044 122L1046 122.5L1045 123.5L1044.5 133L1044 122Z" fill="white"/>
<path d="M1124.5 122L1126 123.5V146.5L1124.5 148L1120 143.5L1125 146.5V123.5L1124.5 122Z" fill="white"/>
<path d="M469.5 123V124" stroke="white"/>
<path d="M783.5 123V124" stroke="white"/>
<path d="M838.5 123V124" stroke="white"/>
<path d="M447.5 124V125" stroke="white"/>
<path d="M453.5 124L456 124.5L453.5 125V124Z" fill="white" stroke="white"/>
<path d="M824.5 124V125" stroke="white"/>
<path d="M836.5 124V125" stroke="white"/>
<path d="M424.5 125L424 126.5L423.5 202L423 126.5L424.5 125Z" fill="white" stroke="white"/>
<path d="M528.5 125L537.5 135" stroke="white"/>
<path d="M784.5 125V126" stroke="white"/>
<path d="M833.5 125L835 125.5L833.5 126V125Z" fill="white" stroke="white"/>
<path d="M1538.5 125L1655 125.5L1538.5 126L1537.5 127L1538.5 125Z" fill="white"/>
<path d="M825.5 126L827.5 129" stroke="white"/>
<path d="M831.5 126V127" stroke="white"/>
<path d="M471.5 127L480.5 137" stroke="white"/>
<path d="M632.5 127L629.5 131" stroke="white"/>
<path d="M785.5 127V128" stroke="white"/>
<path d="M829.5 127V128" stroke="white"/>
<path d="M1331.5 127L1332 137.5H1331L1331.5 127Z" fill="white"/>
<path d="M1222.5 128L1225 128.5V176L1223 175.5L1224 174.5V129L1222.5 128Z" fill="white"/>
<path d="M786.5 129V130" stroke="white"/>
<path d="M1219.5 129L1221 129.5L1219.5 130V129Z" fill="white"/>
<path d="M1359.5 129L1373 129.5L1359.5 130V129Z" fill="white"/>
<path d="M719.5 130L720 151.5L718.5 153H629.5L628 151.5V132.5H629V151.5L629.5 152H719L719.5 130Z" fill="white" stroke="white"/>
<path d="M787.5 131V132" stroke="white"/>
<path d="M1214.5 131L1216 131.5L1214.5 132V131Z" fill="white"/>
<path d="M788.5 133L790 136.5H789L788.5 133Z" fill="white" stroke="white"/>
<path d="M1046.5 133L1110 133.5L1046.5 134V133Z" fill="white"/>
<path d="M1209.5 133L1211 133.5L1209.5 134V133Z" fill="white"/>
<path d="M1204.5 135L1206 135.5L1202.5 137V136L1204.5 135Z" fill="white"/>
<path d="M1261.5 135L1262 136.5H1261L1261.5 135Z" fill="white"/>
<path d="M1199.5 137L1201 137.5L1199.5 138V137Z" fill="white"/>
<path d="M1481.5 137L1482 138.5H1481L1481.5 137Z" fill="white"/>
<path d="M790.5 138L792 140.5H791L790.5 138Z" fill="white" stroke="white"/>
<path d="M1261.5 138L1262 139.5H1261L1261.5 138Z" fill="white"/>
<path d="M482.5 139L492.5 150" stroke="white"/>
<path d="M877.5 139V140" stroke="white"/>
<path d="M1331.5 139L1332 147.5H1331L1331.5 139Z" fill="white"/>
<path d="M1517.5 139L1518 141.5H1517L1517.5 139Z" fill="white"/>
<path d="M874.5 140L876 140.5L874.5 141V140Z" fill="white" stroke="white"/>
<path d="M543.5 141L555.5 154" stroke="white"/>
<path d="M872.5 141V142" stroke="white"/>
<path d="M1480.5 141L1481 143.5H1480L1480.5 141Z" fill="white"/>
<path d="M792.5 142L793 143.5L791 144.5L792.5 142Z" fill="white" stroke="white"/>
<path d="M870.5 142V143" stroke="white"/>
<path d="M1261.5 142L1262 162.5H1261L1261.5 142Z" fill="white"/>
<path d="M867.5 143V144" stroke="white"/>
<path d="M865.5 144V145" stroke="white"/>
<path d="M1516.5 144L1517 146.5H1516L1516.5 144Z" fill="white"/>
<path d="M1623.5 144L1624 172.5H1623L1623.5 144Z" fill="white"/>
<path d="M788.5 145L790 145.5L788.5 146V145Z" fill="white" stroke="white"/>
<path d="M862.5 145L864 145.5L862.5 146V145Z" fill="white" stroke="white"/>
<path d="M786.5 146V147" stroke="white"/>
<path d="M860.5 146V147" stroke="white"/>
<path d="M1479.5 146L1480 148.5H1479L1479.5 146Z" fill="white"/>
<path d="M784.5 147V148" stroke="white"/>
<path d="M857.5 147L859 147.5L857.5 148V147Z" fill="white" stroke="white"/>
<path d="M781.5 148L783 148.5L779.5 150V149L781.5 148Z" fill="white" stroke="white"/>
<path d="M855.5 148V149" stroke="white"/>
<path d="M1515.5 148L1516 151.5H1515L1515.5 148Z" fill="white"/>
<path d="M852.5 149L854 149.5L850.5 151V150L852.5 149Z" fill="white" stroke="white"/>
<path d="M777.5 150V151" stroke="white"/>
<path d="M1352.5 150L1367 164.5V166.5H1366V164.5L1352.5 150Z" fill="white"/>
<path d="M1478.5 150L1479 152.5H1478L1478.5 150Z" fill="white"/>
<path d="M775.5 151V152" stroke="white"/>
<path d="M848.5 151V152" stroke="white"/>
<path d="M1045.5 151L1048 151.5L1045 152V161.5L1046 162.5L1044 161.5V152.5L1045.5 151Z" fill="white"/>
<path d="M772.5 152L774 152.5L772.5 153V152Z" fill="white" stroke="white"/>
<path d="M846.5 152V153" stroke="white"/>
<path d="M1125.5 152L1126 180.5L1124.5 182H1113.5V181H1125L1125.5 152Z" fill="white"/>
<path d="M495.5 153L504.5 163" stroke="white"/>
<path d="M770.5 153V154" stroke="white"/>
<path d="M843.5 153L845 153.5L843.5 154V153Z" fill="white" stroke="white"/>
<path d="M1514.5 153L1515 156.5H1514L1514.5 153Z" fill="white"/>
<path d="M768.5 154V155" stroke="white"/>
<path d="M841.5 154V155" stroke="white"/>
<path d="M766.5 155V156" stroke="white"/>
<path d="M839.5 155L841 159.5H840L839.5 155Z" fill="white" stroke="white"/>
<path d="M1477.5 155L1478 156.5H1477L1477.5 155Z" fill="white"/>
<path d="M763.5 156L765 156.5L763.5 157V156Z" fill="white" stroke="white"/>
<path d="M761.5 157V158" stroke="white"/>
<path d="M1331.5 157L1332 176.5H1331L1331.5 157Z" fill="white"/>
<path d="M759.5 158V159" stroke="white"/>
<path d="M1513.5 158L1514 161.5H1513L1513.5 158Z" fill="white"/>
<path d="M756.5 159L758 159.5L756.5 160V159Z" fill="white" stroke="white"/>
<path d="M1476.5 159L1477 161.5H1476L1476.5 159Z" fill="white"/>
<path d="M754.5 160V161" stroke="white"/>
<path d="M562.5 161L571.5 171" stroke="white"/>
<path d="M752.5 161V162" stroke="white"/>
<path d="M841.5 161V162" stroke="white"/>
<path d="M749.5 162L751 162.5L749.5 163V162Z" fill="white" stroke="white"/>
<path d="M747.5 163V164" stroke="white"/>
<path d="M842.5 163V164" stroke="white"/>
<path d="M1512.5 163L1513 166.5H1512L1512.5 163Z" fill="white"/>
<path d="M745.5 164V165" stroke="white"/>
<path d="M1475.5 164L1476 165.5H1475L1475.5 164Z" fill="white"/>
<path d="M743.5 165V166" stroke="white"/>
<path d="M843.5 165L845 168.5H844L843.5 165Z" fill="white" stroke="white"/>
<path d="M717.5 166L720 167.5L718.5 167L717.5 166Z" fill="white" stroke="white"/>
<path d="M740.5 166L742 166.5L740.5 167V166Z" fill="white" stroke="white"/>
<path d="M508.5 167L517.5 177" stroke="white"/>
<path d="M706.5 167L713 167.5L706.5 168V167Z" fill="white" stroke="white"/>
<path d="M738.5 167V168" stroke="white"/>
<path d="M698.5 168L703 168.5L698.5 169V168Z" fill="white" stroke="white"/>
<path d="M735.5 168L737 168.5L733.5 170V169L735.5 168Z" fill="white" stroke="white"/>
<path d="M1474.5 168L1475 170.5H1474L1474.5 168Z" fill="white"/>
<path d="M689.5 169L694 169.5L689.5 170V169Z" fill="white" stroke="white"/>
<path d="M719.5 169L720 189.5H719L719.5 169Z" fill="white" stroke="white"/>
<path d="M1511.5 169L1512 171.5H1511L1511.5 169Z" fill="white"/>
<path d="M679.5 170L686 170.5L679.5 171V170Z" fill="white" stroke="white"/>
<path d="M845.5 170V171" stroke="white"/>
<path d="M670.5 171L677 171.5L670.5 172V171Z" fill="white" stroke="white"/>
<path d="M731.5 171L732 201.5L733 202.5L731 201.5L731.5 171Z" fill="white" stroke="white"/>
<path d="M803.5 171L806 172.5L807 175.5H806L805 172L803.5 171Z" fill="white" stroke="white"/>
<path d="M661.5 172L667 172.5L661.5 173V172Z" fill="white" stroke="white"/>
<path d="M801.5 172V173" stroke="white"/>
<path d="M846.5 172V173" stroke="white"/>
<path d="M1261.5 172L1262 176.5H1261L1261.5 172Z" fill="white"/>
<path d="M651.5 173L657 173.5L651.5 174V173Z" fill="white" stroke="white"/>
<path d="M799.5 173V174" stroke="white"/>
<path d="M1195.5 173L1196 175.5H1195L1195.5 173Z" fill="white"/>
<path d="M1197.5 173L1205 173.5L1197.5 174V173Z" fill="white"/>
<path d="M1473.5 173L1474 175.5H1473L1473.5 173Z" fill="white"/>
<path d="M640.5 174L647 174.5L640.5 175V174Z" fill="white" stroke="white"/>
<path d="M796.5 174L798 174.5L796.5 175V174Z" fill="white" stroke="white"/>
<path d="M847.5 174V175" stroke="white"/>
<path d="M1210.5 174L1213 174.5L1210.5 175V174Z" fill="white"/>
<path d="M1510.5 174L1511 176.5H1510L1510.5 174Z" fill="white"/>
<path d="M632.5 175L637 175.5L632.5 176V175Z" fill="white" stroke="white"/>
<path d="M794.5 175V176" stroke="white"/>
<path d="M1214.5 175L1222 175.5L1214.5 176V175Z" fill="white"/>
<path d="M792.5 176V177" stroke="white"/>
<path d="M849.5 176L859 176.5L849.5 177V176Z" fill="white" stroke="white"/>
<path d="M865.5 176L879 176.5L865.5 177V176Z" fill="white" stroke="white"/>
<path d="M577.5 177L585.5 186" stroke="white"/>
<path d="M628.5 177L629 202.5L630 203.5L628 202.5L628.5 177Z" fill="white" stroke="white"/>
<path d="M789.5 177L791 177.5L789.5 178V177Z" fill="white" stroke="white"/>
<path d="M807.5 177V178" stroke="white"/>
<path d="M1472.5 177L1473 179.5H1472L1472.5 177Z" fill="white"/>
<path d="M787.5 178V179" stroke="white"/>
<path d="M1196.5 178L1197 179.5H1196L1196.5 178Z" fill="white"/>
<path d="M785.5 179V180" stroke="white"/>
<path d="M808.5 179L809 180.5H808L808.5 179Z" fill="white" stroke="white"/>
<path d="M1509.5 179L1510 181.5H1509L1509.5 179Z" fill="white"/>
<path d="M1676.5 179L1679 179.5L1676.5 180V179Z" fill="white"/>
<path d="M520.5 180L529.5 190" stroke="white"/>
<path d="M782.5 180L784 180.5L782.5 181V180Z" fill="white" stroke="white"/>
<path d="M780.5 181V182" stroke="white"/>
<path d="M1197.5 181L1198 183.5H1197L1197.5 181Z" fill="white"/>
<path d="M1471.5 181L1472 183.5H1471L1471.5 181Z" fill="white"/>
<path d="M1666.5 181L1667 182.5H1666L1666.5 181Z" fill="white"/>
<path d="M778.5 182V183" stroke="white"/>
<path d="M809.5 182V183" stroke="white"/>
<path d="M1044.5 182L1045 202.5H1044L1044.5 182Z" fill="white"/>
<path d="M776.5 183V184" stroke="white"/>
<path d="M1112.5 183L1113 184.5L1109.5 191L1109 189.5L1112.5 183Z" fill="white"/>
<path d="M1654.5 183L1646.5 192L1528 191.5L1646.5 191L1654.5 183Z" fill="white"/>
<path d="M773.5 184L775 184.5L773.5 185V184Z" fill="white" stroke="white"/>
<path d="M810.5 184V185" stroke="white"/>
<path d="M1508.5 184L1509 186.5H1508L1508.5 184Z" fill="white"/>
<path d="M771.5 185V186" stroke="white"/>
<path d="M1198.5 185L1199 186.5H1198L1198.5 185Z" fill="white"/>
<path d="M769.5 186V187" stroke="white"/>
<path d="M811.5 186L812 187.5H811L811.5 186Z" fill="white" stroke="white"/>
<path d="M1470.5 186L1471 188.5H1470L1470.5 186Z" fill="white"/>
<path d="M1664.5 186L1665 187.5L1663.5 190L1663 188.5L1664.5 186Z" fill="white"/>
<path d="M766.5 187L768 187.5L766.5 188V187Z" fill="white" stroke="white"/>
<path d="M1332.5 187L1339 188.5L1332 189L1332.5 187Z" fill="white"/>
<path d="M1387.5 187L1404 202.5L1388.5 188L1372.5 203H1296.5V202H1372.5L1387.5 187Z" fill="white"/>
<path d="M764.5 188V189" stroke="white"/>
<path d="M1343.5 188L1342.5 190L1340 189.5L1343.5 188Z" fill="white"/>
<path d="M762.5 189V190" stroke="white"/>
<path d="M812.5 189V190" stroke="white"/>
<path d="M1199.5 189L1200 190.5H1199L1199.5 189Z" fill="white"/>
<path d="M1507.5 189L1508 191.5H1507L1507.5 189Z" fill="white"/>
<path d="M759.5 190L761 190.5L759.5 191V190Z" fill="white" stroke="white"/>
<path d="M719.5 191L718.5 193L717 192.5L719.5 191Z" fill="white" stroke="white"/>
<path d="M757.5 191V192" stroke="white"/>
<path d="M813.5 191V192" stroke="white"/>
<path d="M1469.5 191L1470 193.5H1469L1469.5 191Z" fill="white"/>
<path d="M591.5 192L599.5 201" stroke="white"/>
<path d="M755.5 192V193" stroke="white"/>
<path d="M532.5 193L539.5 201" stroke="white"/>
<path d="M710.5 193L715 193.5L710.5 194V193Z" fill="white" stroke="white"/>
<path d="M752.5 193L754 193.5L752.5 194V193Z" fill="white" stroke="white"/>
<path d="M1200.5 193L1201 194.5H1200L1200.5 193Z" fill="white"/>
<path d="M1506.5 193L1507 195.5H1506L1506.5 193Z" fill="white"/>
<path d="M701.5 194L706 194.5L701.5 195V194Z" fill="white" stroke="white"/>
<path d="M750.5 194V195" stroke="white"/>
<path d="M814.5 194V195" stroke="white"/>
<path d="M1261.5 194L1262 200.5H1261L1261.5 194Z" fill="white"/>
<path d="M694.5 195L698 195.5L694.5 196V195Z" fill="white" stroke="white"/>
<path d="M748.5 195V196" stroke="white"/>
<path d="M1660.5 195L1661 196.5H1660L1660.5 195Z" fill="white"/>
<path d="M684.5 196L690 196.5L684.5 197V196Z" fill="white" stroke="white"/>
<path d="M745.5 196L747 196.5L745.5 197V196Z" fill="white" stroke="white"/>
<path d="M815.5 196L817 199.5H816L815.5 196Z" fill="white" stroke="white"/>
<path d="M1201.5 196L1202 198.5H1201L1201.5 196Z" fill="white"/>
<path d="M1468.5 196L1469 198.5H1468L1468.5 196Z" fill="white"/>
<path d="M676.5 197L682 197.5L676.5 198V197Z" fill="white" stroke="white"/>
<path d="M743.5 197V198" stroke="white"/>
<path d="M667.5 198L672 198.5L667.5 199V198Z" fill="white" stroke="white"/>
<path d="M741.5 198V199" stroke="white"/>
<path d="M1505.5 198L1506 200.5H1505L1505.5 198Z" fill="white"/>
<path d="M659.5 199L664 199.5L659.5 200V199Z" fill="white" stroke="white"/>
<path d="M739.5 199V200" stroke="white"/>
<path d="M650.5 200L655 200.5L650.5 201V200Z" fill="white" stroke="white"/>
<path d="M736.5 200L738 200.5L736.5 201V200Z" fill="white" stroke="white"/>
<path d="M1202.5 200L1203 202L1262 202.5L1202 203L1202.5 200Z" fill="white"/>
<path d="M1467.5 200L1468 202.5H1467L1467.5 200Z" fill="white"/>
<path d="M642.5 201L646 201.5L642.5 202V201Z" fill="white" stroke="white"/>
<path d="M734.5 201V202" stroke="white"/>
<path d="M817.5 201L818.5 202L881 202.5L818.5 203L817.5 201Z" fill="white" stroke="white"/>
<path d="M601.5 202L602 204L542 203.5L600.5 203L601.5 202Z" fill="white" stroke="white"/>
<path d="M632.5 202L638 202.5L632.5 203V202Z" fill="white" stroke="white"/>
<path d="M943.5 202L977 202.5L943.5 203V202Z" fill="white"/>
<path d="M1010.5 202L1043 202.5L1010.5 203V202Z" fill="white"/>
<path d="M1105.5 202L1162 202.5L1105.5 203V202Z" fill="white"/>
<path d="M1405.5 202L1444 202.5L1405.5 203V202Z" fill="white"/>
<path d="M1469.5 202L1503 202.5L1469.5 203V202Z" fill="white"/>
<path d="M378.5 203L424 203.5L378.5 204V203Z" fill="white" stroke="white"/>
<path d="M1067 2H1102.5L1103 2.5V9.5L1103.5 10H1161.5L1162 10.5V29H1103.5L1103 29.5V39.5L1104.5 41H1159V58.5L1158.5 59H1104.5L1103 60.5V71H1164.5L1165 71.5V91H1005.5L1004 89.5L1005 88.5V71H1066.5L1067 70.5V59L1011 58.5L1012 57.5V42.5L1011.5 41H1065.5L1067 39.5V29.5L1066.5 29H1009V10.5L1010.5 11L1012.5 10H1067V2Z" fill="white"/>
<path d="M595.5 3L596 5L587.5 11L456.5 125L453.5 124L448.5 125H446.5H424.5L423 126.5V201.5L424 202.5L378 203V4.5L378.5 4H423.5L423 5.5V102.5L425.5 103L538.5 4H594.5L595.5 3Z" fill="white" stroke="white"/>
<path d="M672.5 3L673.5 4H697.5L698.5 3H712L667 70.5C667.867 72.3667 668.7 72.5333 669.5 71L687.5 72L688.5 71H719V87.5L704.5 102L677 127.5L677.5 129H719V152H629.5L629 151.5V131.5L664 97.5L663.5 96H629V65.5L672.5 3Z" fill="white" stroke="white"/>
<path d="M753 3H789.5L791 4.5L797 32H836.5L837 29.5L830 4H866.5L867 5.5L875 32.5L880 56H804.5L803 57.5L807 75.5L809.5 79H875.5L877.5 78L880 78.5V102H814.5L814 105.5L827.5 129L861.5 114L874.5 119H880V137.5L878.5 139L839 155C841.067 163.467 844.567 170.8 849.5 177L864.5 176L865.5 177H878.5L881 176V202H818.5L804.5 171L732 202V170.5L734.5 170L793 143.5L773.5 102H730V79H767.5L770 78L765 56H730V33.5L731.5 32H759L753 3Z" fill="white" stroke="white"/>
<path d="M942 3H978V43H1000V50.5L999 54.5L1000 55.5V67H978.5L978 67.5V202.5L976.5 202H943.5L942.5 203L942 3Z" fill="white"/>
<path d="M1225 3H1262V25H1285V49H1262V56.5L1261 57.5V65.5C1262.8 66.6333 1263.13 69.3 1262 73.5C1260.53 74.3 1260.2 76.3 1261 79.5L1262 85L1284.5 76L1285 103L1262 112.5L1261 121.5L1262 124.5C1263.13 129.967 1262.8 133.967 1261 136.5V138.5L1262 141.5L1261 142.5V162.5L1262 163.5V171.5L1261 176.5L1262 177.5V193.5C1260.33 194.5 1260 196.833 1261 200.5L1261.5 202H1203.5L1203 200.5L1196 177.5V173.5L1197.5 174H1209.5C1213.23 176.4 1218.4 177.067 1225 176V128.5L1222.5 128L1196.5 139L1196 111L1219.5 102L1225 98.5V49H1196V25H1223.5L1225 23.5V3Z" fill="white"/>
<path d="M1295.5 5L1296.5 6H1441.5L1443 5.5V72.5L1441.5 74L1434.5 80H1364V60H1407V31.5L1405.5 30H1332L1331 35.5V83.5L1332 88.5L1331 91.5L1332 94H1443V131.5L1410 164.5V166.5L1445.5 203L1443.5 202H1405.5L1404.5 203L1388.5 187L1372.5 202H1296.5L1294 203V6.5L1295.5 5ZM1332 118L1331 138V140V148L1332 149V157L1331 158V177L1332 178C1333.33 181.333 1333 183.667 1331 185L1332 189H1340L1341 190H1343L1366 167C1367.33 167.667 1367.67 167 1367 165L1347 146L1357 134L1358 130H1374L1388 144H1390L1407 127V120L1406 118H1332Z" fill="white"/>
<path d="M1715.5 5L1716 75H1680.5L1679 73.5L1680 72.5V31.5L1678.5 30H1519.5L1518 31.5V49H1653.5L1654 49.5V73H1519.5L1518 74.5V88.5L1519.5 90H1716V202H1659.5L1658.5 203L1658 201.5L1665 187.5L1667 180H1678.5L1679 178.5L1680 177.5V114.5L1678.5 113H1519.5L1518 114.5V138.5L1515 148.5L1506 197.5L1503.5 203L1502.5 202H1469.5L1468 202.5L1471 184.5L1482 138.5V17.5L1493.5 6H1714.5L1715.5 5Z" fill="white"/>
<path d="M907.5 35L910.5 36L913.5 35L916.5 36L917.5 35H930V151.5L929.5 152H906V36.5L907.5 35Z" fill="white"/>
<path d="M500.5 96L601 202.5L541.5 203L469 124.5L500.5 96Z" fill="white" stroke="white"/>
<path d="M1020.5 102C1021.63 103.867 1024.3 104.2 1028.5 103L1029.5 102H1144.5L1145.5 103H1153.5L1154.5 102H1162V202H1105.5L1104 202.5L1113 184.5V182H1124.5L1126 180.5V152H1048.5L1045.5 151L1044 152.5V161.5L1045.5 163H1112C1113.2 167.733 1112.37 170.733 1109.5 172L1096.5 182H1044L1043.5 203L1042.5 202H1010.5L1009 202.5V112.5L1014.5 107L1020.5 102ZM1044 122V133L1047 134H1110L1111 133C1112.33 133.667 1112.67 135.333 1112 138L1125 148L1126 147V124L1125 122H1044Z" fill="white"/>
<path d="M1538.5 126H1655V182.5L1646.5 191H1528V135.5L1536.5 127L1538.5 126ZM1560 144V173H1624V144H1560Z" fill="white"/>
<path d="M713.5 167C717.1 166.6 718.933 166.767 719 167.5V192L709.5 194H701.5L693.5 196H684.5L683.5 197L650.5 200L641.5 202H632.5L629 203V176.5L629.5 176H636.5L637.5 175L676.5 172L677.5 171H685.5L686.5 170L712.5 168L713.5 167Z" fill="white" stroke="white"/>
</svg>
