<svg width="1789" height="206" viewBox="0 0 1789 206" fill="none" xmlns="http://www.w3.org/2000/svg">
<path d="M93.6479 0H183L89.3521 206H0L93.6479 0Z" fill="#0095EA"/>
<path d="M171.58 102H83L129.42 206H218L171.58 102Z" fill="#8BCFFF"/>
<path d="M217.42 1H306L259.58 102H171L217.42 1Z" fill="#8BCFFF"/>
<path d="M404.284 120.053C400.593 120.053 397.077 119.35 393.737 117.943C390.485 116.449 387.629 114.516 385.168 112.143C382.707 109.682 380.773 106.825 379.367 103.573C377.961 100.233 377.258 96.7178 377.258 93.0264V38.9736C377.258 35.2822 377.961 31.8105 379.367 28.5586C380.773 25.2188 382.707 22.3623 385.168 19.9893C387.629 17.5283 390.485 15.5947 393.737 14.1885C397.077 12.6943 400.593 11.9473 404.284 11.9473H496.042C499.733 11.9473 503.205 12.6943 506.457 14.1885C509.797 15.5947 512.697 17.5283 515.158 19.9893C517.619 22.3623 519.553 25.2188 520.959 28.5586C522.365 31.8105 523.068 35.2822 523.068 38.9736V63.3633H496.042V38.9736H404.284V93.0264H496.042C499.733 93.0264 503.205 93.7295 506.457 95.1357C509.797 96.542 512.697 98.4756 515.158 100.937C517.619 103.397 519.553 106.298 520.959 109.638C522.365 112.89 523.068 116.361 523.068 120.053V173.974C523.068 177.665 522.365 181.181 520.959 184.521C519.553 187.772 517.619 190.629 515.158 193.09C512.697 195.551 509.797 197.484 506.457 198.891C503.205 200.297 499.733 201 496.042 201H401.647C397.956 201 394.44 200.297 391.101 198.891C387.849 197.484 384.992 195.551 382.531 193.09C380.07 190.629 378.137 187.772 376.73 184.521C375.324 181.181 374.621 177.665 374.621 173.974V149.716H401.647V173.974H496.042V120.053H404.284Z" fill="white"/>
<path d="M672.38 86.5664V201H646.409V86.5664H586.951V201H561.111V60.5947H586.951V85.3799C587.127 81.9521 587.918 78.7441 589.324 75.7559C590.73 72.6797 592.576 70.043 594.861 67.8457C597.234 65.5605 599.959 63.8027 603.035 62.5723C606.111 61.2539 609.407 60.5947 612.922 60.5947H646.409C649.837 60.5947 653.088 61.2539 656.165 62.5723C659.241 63.8027 661.965 65.5605 664.338 67.8457C666.712 70.043 668.601 72.6797 670.007 75.7559C671.502 78.7441 672.293 81.9521 672.38 85.3799C672.556 81.9521 673.303 78.7441 674.622 75.7559C676.028 72.6797 677.874 70.043 680.159 67.8457C682.532 65.5605 685.256 63.8027 688.333 62.5723C691.409 61.2539 694.705 60.5947 698.22 60.5947H731.707C735.31 60.5947 738.694 61.2979 741.858 62.7041C745.022 64.0225 747.747 65.8682 750.032 68.2412C752.405 70.5264 754.251 73.251 755.569 76.415C756.975 79.5791 757.678 82.9629 757.678 86.5664V201H731.707V86.5664H672.38Z" fill="white"/>
<path d="M792.952 139.696C792.952 136.093 793.612 132.753 794.93 129.677C796.336 126.513 798.182 123.744 800.467 121.371C802.84 118.998 805.609 117.152 808.773 115.834C811.937 114.428 815.277 113.725 818.792 113.725H885.765V86.5664H800.994V60.5947H885.765C889.368 60.5947 892.752 61.2979 895.916 62.7041C899.08 64.0225 901.805 65.8682 904.09 68.2412C906.463 70.5264 908.309 73.251 909.627 76.415C911.033 79.5791 911.737 82.9629 911.737 86.5664V201H885.765V177.27C885.501 180.521 884.622 183.598 883.128 186.498C881.634 189.398 879.7 191.947 877.327 194.145C875.042 196.254 872.405 197.924 869.417 199.154C866.429 200.385 863.265 201 859.925 201H818.792C815.277 201 811.937 200.341 808.773 199.022C805.609 197.616 802.84 195.771 800.467 193.485C798.182 191.112 796.336 188.344 794.93 185.18C793.612 182.016 792.952 178.632 792.952 175.028V139.696ZM818.792 175.028H885.765V139.696H818.792V175.028Z" fill="white"/>
<path d="M972.85 86.5664V201H947.011V60.5947H972.85V85.3799C973.026 81.9521 973.817 78.7441 975.223 75.7559C976.63 72.6797 978.475 70.043 980.761 67.8457C983.134 65.5605 985.858 63.8027 988.934 62.5723C992.011 61.2539 995.306 60.5947 998.822 60.5947H1026.38C1029.98 60.5947 1033.32 61.2979 1036.4 62.7041C1039.56 64.0225 1042.33 65.8682 1044.7 68.2412C1047.07 70.5264 1048.92 73.251 1050.24 76.415C1051.64 79.5791 1052.35 82.9629 1052.35 86.5664V110.297H1026.38V86.5664H972.85Z" fill="white"/>
<path d="M1068.37 60.5947H1102.65V17.3525H1128.62V60.5947H1174.77V86.5664H1128.62V175.028H1174.77V201H1128.62C1125.11 201 1121.77 200.341 1118.6 199.022C1115.44 197.616 1112.67 195.771 1110.3 193.485C1107.92 191.112 1106.03 188.344 1104.63 185.18C1103.31 182.016 1102.65 178.632 1102.65 175.028V86.5664H1068.37V60.5947Z" fill="white"/>
<path d="M1239.7 11.9473V93.5537L1329.88 11.9473H1367.98L1265.67 104.628L1372.07 201H1333.96L1239.7 115.966V201H1212.68V11.9473H1239.7Z" fill="white"/>
<path d="M1411.82 6.54199V201H1385.98V6.54199H1411.82Z" fill="white"/>
<path d="M1474.25 60.5947V201H1448.28V60.5947H1474.25ZM1446.96 6.54199H1475.57V33.5684H1446.96V6.54199Z" fill="white"/>
<path d="M1635.04 201H1609.06V86.5664H1536.69V201H1510.85V60.5947H1536.69V85.3799C1536.86 81.9521 1537.65 78.7441 1539.06 75.7559C1540.47 72.6797 1542.31 70.043 1544.6 67.8457C1546.97 65.5605 1549.69 63.8027 1552.77 62.5723C1555.85 61.2539 1559.14 60.5947 1562.66 60.5947H1609.06C1612.67 60.5947 1616.05 61.2979 1619.22 62.7041C1622.38 64.0225 1625.1 65.8682 1627.39 68.2412C1629.76 70.5264 1631.61 73.251 1632.93 76.415C1634.33 79.5791 1635.04 82.9629 1635.04 86.5664V201Z" fill="white"/>
<path d="M1788.96 144.047H1696.02V175.028H1788.96V201H1696.02C1692.5 201 1689.16 200.341 1686 199.022C1682.83 197.616 1680.07 195.771 1677.69 193.485C1675.41 191.112 1673.56 188.344 1672.16 185.18C1670.84 182.016 1670.18 178.632 1670.18 175.028V86.5664C1670.18 82.9629 1670.84 79.5791 1672.16 76.415C1673.56 73.251 1675.41 70.5264 1677.69 68.2412C1680.07 65.8682 1682.83 64.0225 1686 62.7041C1689.16 61.2979 1692.5 60.5947 1696.02 60.5947H1762.99C1766.59 60.5947 1769.98 61.2979 1773.14 62.7041C1776.31 64.0225 1779.03 65.8682 1781.32 68.2412C1783.69 70.5264 1785.53 73.251 1786.85 76.415C1788.26 79.5791 1788.96 82.9629 1788.96 86.5664V144.047ZM1696.02 86.5664V118.075H1762.99V86.5664H1696.02Z" fill="white"/>
</svg>
