<svg width="3000" height="800" viewBox="0 0 3000 800" fill="none" xmlns="http://www.w3.org/2000/svg">
<path d="M106 608.349V195.19H203.58V395.541L431.96 195.19H559.644L356.179 371.665L576.254 608.349H449.607L286.627 430.836L203.58 496.236V608.349H106Z" fill="white"/>
<path d="M626.082 323.914L717.434 192.076H807.747L712.243 329.104H819.166V365.437L730.929 451.598H819.166V501.427H626.082V457.827L693.558 384.123H626.082V323.914Z" fill="white"/>
<path d="M626.082 609.388V548.141L819.166 525.303V586.55L626.082 609.388Z" fill="white"/>
<path d="M838.89 301.076V249.171H897.023L887.68 192.076H967.613L982.146 249.171H1058.96L1043.39 192.076H1117.1L1154.47 301.076H990.451L1003.95 344.675H1154.47V397.618H1018.48L1041.32 452.636L1121.25 417.341H1154.47V471.322L1063.12 509.731L1084.92 548.141H1154.47V603.159H1021.59L990.451 538.798L838.89 603.159V538.798L967.613 480.665L934.394 397.618H838.89V344.675H921.937L905.328 301.076H838.89Z" fill="white"/>
<path d="M1204.3 498.312V258.514H1252.05V498.312H1204.3Z" fill="white"/>
<path d="M1280.08 604.197V190H1354.82V274.085H1393.23V330.142H1354.82V604.197H1280.08Z" fill="white"/>
<path d="M1533.37 204.533V190H1611.23V204.533H1736.84V245.019H1611.23V266.818H1727.49V304.19H1611.23V330.142H1736.84V370.627H1410.88V330.142H1533.37V304.19H1424.37V266.818H1533.37V245.019H1419.18V204.533H1533.37Z" fill="white"/>
<path d="M1735.8 604.197H1617.46L1637.18 561.635H1657.94V436.027H1490.81V458.865H1633.03V476.512L1603.96 498.312H1490.81V521.15H1633.03V537.759L1603.96 561.635H1490.81V604.197H1419.18L1415.03 417.341L1440.98 395.541H1735.8V604.197Z" fill="white"/>
<path d="M1804.31 282.39V234.638H1866.6V190H1942.38V234.638H1993.24V282.39H1942.38V360.246L1993.24 340.523V397.618L1942.38 418.379V604.197H1823L1804.31 545.026H1866.6V448.484L1804.31 474.436V418.379L1866.6 388.275V282.39H1804.31Z" fill="white"/>
<path d="M2016.08 604.197V190H2323.36V350.904H2137.54V305.228H2244.46V243.981H2085.63V375.818H2323.36V448.484L2249.65 528.417L2318.16 604.197H2235.12L2206.05 566.826L2170.76 604.197H2097.05L2168.68 526.34L2110.55 465.093V448.484H2173.87L2210.2 485.855L2244.46 448.484V427.722H2085.63V604.197H2016.08Z" fill="white"/>
<path d="M2886 335.332H2474.92V364.398H2886V606.273H2759.35L2778.04 557.483H2808.14V421.493H2474.92V472.36L2444.81 606.273H2367.99L2400.17 472.36V190H2886V335.332ZM2759.35 549.179L2727.17 579.283H2493.6V467.17L2523.71 441.217H2759.35V549.179ZM2562.12 481.702V541.912H2694.99V481.702H2562.12ZM2472.84 290.694H2809.18V245.019H2472.84V290.694Z" fill="white"/>
</svg>
