<svg width="3000" height="800" viewBox="0 0 3000 800" fill="none" xmlns="http://www.w3.org/2000/svg">
<mask id="path-1-outside-1_168_1421" maskUnits="userSpaceOnUse" x="69" y="202" width="2862" height="395" fill="black">
<rect fill="white" x="69" y="202" width="2862" height="395"/>
<path d="M129.983 432.405C122.518 432.405 115.409 430.984 108.656 428.142C102.08 425.123 96.3037 421.215 91.3273 416.419C86.3509 411.445 82.4409 405.673 79.5973 399.1C76.7536 392.351 75.3318 385.245 75.3318 377.785V268.544C75.3318 261.084 76.7536 254.068 79.5973 247.496C82.4409 240.746 86.3509 234.973 91.3273 230.177C96.3037 225.203 102.08 221.296 108.656 218.454C115.409 215.434 122.518 213.924 129.983 213.924H315.53C322.995 213.924 330.015 215.434 336.591 218.454C343.345 221.296 349.21 225.203 354.186 230.177C359.162 234.973 363.072 240.746 365.916 247.496C368.76 254.068 370.182 261.084 370.182 268.544V317.836H315.53V268.544H129.983V377.785H315.53C322.995 377.785 330.015 379.206 336.591 382.048C343.345 384.89 349.21 388.798 354.186 393.772C359.162 398.745 363.072 404.607 365.916 411.357C368.76 417.929 370.182 424.945 370.182 432.405V541.38C370.182 548.84 368.76 555.945 365.916 562.695C363.072 569.267 359.162 575.04 354.186 580.014C349.21 584.987 343.345 588.895 336.591 591.737C330.015 594.579 322.995 596 315.53 596H124.651C117.187 596 110.078 594.579 103.324 591.737C96.748 588.895 90.9718 584.987 85.9955 580.014C81.0191 575.04 77.1091 569.267 74.2655 562.695C71.4218 555.945 70 548.84 70 541.38V492.355H124.651V541.38H315.53V432.405H129.983Z"/>
<path d="M672.112 364.729V596H619.594V364.729H499.361V596H447.109V312.241H499.361V362.332C499.716 355.404 501.316 348.921 504.16 342.881C507.003 336.664 510.736 331.336 515.356 326.895C520.155 322.277 525.665 318.724 531.885 316.237C538.106 313.573 544.77 312.241 551.879 312.241H619.594C626.525 312.241 633.101 313.573 639.321 316.237C645.542 318.724 651.051 322.277 655.85 326.895C660.649 331.336 664.47 336.664 667.313 342.881C670.335 348.921 671.934 355.404 672.112 362.332C672.467 355.404 673.978 348.921 676.644 342.881C679.488 336.664 683.22 331.336 687.841 326.895C692.64 322.277 698.149 318.724 704.37 316.237C710.59 313.573 717.255 312.241 724.364 312.241H792.078C799.365 312.241 806.207 313.662 812.606 316.504C819.004 319.168 824.513 322.898 829.134 327.694C833.933 332.313 837.665 337.819 840.331 344.214C843.175 350.608 844.596 357.447 844.596 364.729V596H792.078V364.729H672.112Z"/>
<path d="M915.926 472.105C915.926 464.822 917.258 458.073 919.924 451.856C922.768 445.461 926.5 439.866 931.121 435.07C935.92 430.274 941.518 426.544 947.916 423.879C954.315 421.037 961.068 419.616 968.177 419.616H1103.61V364.729H932.188V312.241H1103.61C1110.89 312.241 1117.74 313.662 1124.13 316.504C1130.53 319.168 1136.04 322.898 1140.66 327.694C1145.46 332.313 1149.19 337.819 1151.86 344.214C1154.7 350.608 1156.12 357.447 1156.12 364.729V596H1103.61V548.041C1103.07 554.613 1101.3 560.83 1098.27 566.692C1095.25 572.553 1091.34 577.704 1086.54 582.145C1081.92 586.408 1076.59 589.783 1070.55 592.27C1064.51 594.757 1058.11 596 1051.35 596H968.177C961.068 596 954.315 594.668 947.916 592.003C941.518 589.161 935.92 585.431 931.121 580.813C926.5 576.017 922.768 570.422 919.924 564.027C917.258 557.633 915.926 550.794 915.926 543.511V472.105ZM968.177 543.511H1103.61V472.105H968.177V543.511Z"/>
<path d="M1279.71 364.729V596H1227.45V312.241H1279.71V362.332C1280.06 355.404 1281.66 348.921 1284.5 342.881C1287.35 336.664 1291.08 331.336 1295.7 326.895C1300.5 322.277 1306.01 318.724 1312.23 316.237C1318.45 313.573 1325.11 312.241 1332.22 312.241H1387.94C1395.23 312.241 1401.98 313.662 1408.2 316.504C1414.6 319.168 1420.2 322.898 1425 327.694C1429.8 332.313 1433.53 337.819 1436.19 344.214C1439.04 350.608 1440.46 357.447 1440.46 364.729V412.689H1387.94V364.729H1279.71Z"/>
<path d="M1472.87 312.241H1542.18V224.848H1594.7V312.241H1688.01V364.729H1594.7V543.511H1688.01V596H1594.7C1587.59 596 1580.84 594.668 1574.44 592.003C1568.04 589.161 1562.44 585.431 1557.64 580.813C1552.84 576.017 1549.02 570.422 1546.18 564.027C1543.51 557.633 1542.18 550.794 1542.18 543.511V364.729H1472.87V312.241Z"/>
<path d="M1819.32 213.924V378.851L2001.67 213.924H2078.71L1871.84 401.232L2086.97 596H2009.93L1819.32 424.146V596H1764.67V213.924H1819.32Z"/>
<path d="M2167.37 203V596H2115.12V203H2167.37Z"/>
<path d="M2293.62 312.241V596H2241.1V312.241H2293.62ZM2238.43 203H2296.28V257.62H2238.43V203Z"/>
<path d="M2618.74 596H2566.22V364.729H2419.86V596H2367.61V312.241H2419.86V362.332C2420.22 355.404 2421.82 348.921 2424.66 342.881C2427.5 336.664 2431.24 331.336 2435.86 326.895C2440.66 322.277 2446.17 318.724 2452.39 316.237C2458.61 313.573 2465.27 312.241 2472.38 312.241H2566.22C2573.51 312.241 2580.35 313.662 2586.75 316.504C2593.15 319.168 2598.66 322.898 2603.28 327.694C2608.08 332.313 2611.81 337.819 2614.47 344.214C2617.32 350.608 2618.74 357.447 2618.74 364.729V596Z"/>
<path d="M2930 480.898H2742.05V543.511H2930V596H2742.05C2734.94 596 2728.19 594.668 2721.79 592.003C2715.39 589.161 2709.8 585.431 2705 580.813C2700.38 576.017 2696.64 570.422 2693.8 564.027C2691.13 557.633 2689.8 550.794 2689.8 543.511V364.729C2689.8 357.447 2691.13 350.608 2693.8 344.214C2696.64 337.819 2700.38 332.313 2705 327.694C2709.8 322.898 2715.39 319.168 2721.79 316.504C2728.19 313.662 2734.94 312.241 2742.05 312.241H2877.48C2884.77 312.241 2891.61 313.662 2898.01 316.504C2904.41 319.168 2909.92 322.898 2914.54 327.694C2919.34 332.313 2923.07 337.819 2925.73 344.214C2928.58 350.608 2930 357.447 2930 364.729V480.898ZM2742.05 364.729V428.409H2877.48V364.729H2742.05Z"/>
</mask>
<path d="M129.983 432.405C122.518 432.405 115.409 430.984 108.656 428.142C102.08 425.123 96.3037 421.215 91.3273 416.419C86.3509 411.445 82.4409 405.673 79.5973 399.1C76.7536 392.351 75.3318 385.245 75.3318 377.785V268.544C75.3318 261.084 76.7536 254.068 79.5973 247.496C82.4409 240.746 86.3509 234.973 91.3273 230.177C96.3037 225.203 102.08 221.296 108.656 218.454C115.409 215.434 122.518 213.924 129.983 213.924H315.53C322.995 213.924 330.015 215.434 336.591 218.454C343.345 221.296 349.21 225.203 354.186 230.177C359.162 234.973 363.072 240.746 365.916 247.496C368.76 254.068 370.182 261.084 370.182 268.544V317.836H315.53V268.544H129.983V377.785H315.53C322.995 377.785 330.015 379.206 336.591 382.048C343.345 384.89 349.21 388.798 354.186 393.772C359.162 398.745 363.072 404.607 365.916 411.357C368.76 417.929 370.182 424.945 370.182 432.405V541.38C370.182 548.84 368.76 555.945 365.916 562.695C363.072 569.267 359.162 575.04 354.186 580.014C349.21 584.987 343.345 588.895 336.591 591.737C330.015 594.579 322.995 596 315.53 596H124.651C117.187 596 110.078 594.579 103.324 591.737C96.748 588.895 90.9718 584.987 85.9955 580.014C81.0191 575.04 77.1091 569.267 74.2655 562.695C71.4218 555.945 70 548.84 70 541.38V492.355H124.651V541.38H315.53V432.405H129.983Z" fill="white"/>
<path d="M672.112 364.729V596H619.594V364.729H499.361V596H447.109V312.241H499.361V362.332C499.716 355.404 501.316 348.921 504.16 342.881C507.003 336.664 510.736 331.336 515.356 326.895C520.155 322.277 525.665 318.724 531.885 316.237C538.106 313.573 544.77 312.241 551.879 312.241H619.594C626.525 312.241 633.101 313.573 639.321 316.237C645.542 318.724 651.051 322.277 655.85 326.895C660.649 331.336 664.47 336.664 667.313 342.881C670.335 348.921 671.934 355.404 672.112 362.332C672.467 355.404 673.978 348.921 676.644 342.881C679.488 336.664 683.22 331.336 687.841 326.895C692.64 322.277 698.149 318.724 704.37 316.237C710.59 313.573 717.255 312.241 724.364 312.241H792.078C799.365 312.241 806.207 313.662 812.606 316.504C819.004 319.168 824.513 322.898 829.134 327.694C833.933 332.313 837.665 337.819 840.331 344.214C843.175 350.608 844.596 357.447 844.596 364.729V596H792.078V364.729H672.112Z" fill="white"/>
<path d="M915.926 472.105C915.926 464.822 917.258 458.073 919.924 451.856C922.768 445.461 926.5 439.866 931.121 435.07C935.92 430.274 941.518 426.544 947.916 423.879C954.315 421.037 961.068 419.616 968.177 419.616H1103.61V364.729H932.188V312.241H1103.61C1110.89 312.241 1117.74 313.662 1124.13 316.504C1130.53 319.168 1136.04 322.898 1140.66 327.694C1145.46 332.313 1149.19 337.819 1151.86 344.214C1154.7 350.608 1156.12 357.447 1156.12 364.729V596H1103.61V548.041C1103.07 554.613 1101.3 560.83 1098.27 566.692C1095.25 572.553 1091.34 577.704 1086.54 582.145C1081.92 586.408 1076.59 589.783 1070.55 592.27C1064.51 594.757 1058.11 596 1051.35 596H968.177C961.068 596 954.315 594.668 947.916 592.003C941.518 589.161 935.92 585.431 931.121 580.813C926.5 576.017 922.768 570.422 919.924 564.027C917.258 557.633 915.926 550.794 915.926 543.511V472.105ZM968.177 543.511H1103.61V472.105H968.177V543.511Z" fill="white"/>
<path d="M1279.71 364.729V596H1227.45V312.241H1279.71V362.332C1280.06 355.404 1281.66 348.921 1284.5 342.881C1287.35 336.664 1291.08 331.336 1295.7 326.895C1300.5 322.277 1306.01 318.724 1312.23 316.237C1318.45 313.573 1325.11 312.241 1332.22 312.241H1387.94C1395.23 312.241 1401.98 313.662 1408.2 316.504C1414.6 319.168 1420.2 322.898 1425 327.694C1429.8 332.313 1433.53 337.819 1436.19 344.214C1439.04 350.608 1440.46 357.447 1440.46 364.729V412.689H1387.94V364.729H1279.71Z" fill="white"/>
<path d="M1472.87 312.241H1542.18V224.848H1594.7V312.241H1688.01V364.729H1594.7V543.511H1688.01V596H1594.7C1587.59 596 1580.84 594.668 1574.44 592.003C1568.04 589.161 1562.44 585.431 1557.64 580.813C1552.84 576.017 1549.02 570.422 1546.18 564.027C1543.51 557.633 1542.18 550.794 1542.18 543.511V364.729H1472.87V312.241Z" fill="white"/>
<path d="M1819.32 213.924V378.851L2001.67 213.924H2078.71L1871.84 401.232L2086.97 596H2009.93L1819.32 424.146V596H1764.67V213.924H1819.32Z" fill="white"/>
<path d="M2167.37 203V596H2115.12V203H2167.37Z" fill="white"/>
<path d="M2293.62 312.241V596H2241.1V312.241H2293.62ZM2238.43 203H2296.28V257.62H2238.43V203Z" fill="white"/>
<path d="M2618.74 596H2566.22V364.729H2419.86V596H2367.61V312.241H2419.86V362.332C2420.22 355.404 2421.82 348.921 2424.66 342.881C2427.5 336.664 2431.24 331.336 2435.86 326.895C2440.66 322.277 2446.17 318.724 2452.39 316.237C2458.61 313.573 2465.27 312.241 2472.38 312.241H2566.22C2573.51 312.241 2580.35 313.662 2586.75 316.504C2593.15 319.168 2598.66 322.898 2603.28 327.694C2608.08 332.313 2611.81 337.819 2614.47 344.214C2617.32 350.608 2618.74 357.447 2618.74 364.729V596Z" fill="white"/>
<path d="M2930 480.898H2742.05V543.511H2930V596H2742.05C2734.94 596 2728.19 594.668 2721.79 592.003C2715.39 589.161 2709.8 585.431 2705 580.813C2700.38 576.017 2696.64 570.422 2693.8 564.027C2691.13 557.633 2689.8 550.794 2689.8 543.511V364.729C2689.8 357.447 2691.13 350.608 2693.8 344.214C2696.64 337.819 2700.38 332.313 2705 327.694C2709.8 322.898 2715.39 319.168 2721.79 316.504C2728.19 313.662 2734.94 312.241 2742.05 312.241H2877.48C2884.77 312.241 2891.61 313.662 2898.01 316.504C2904.41 319.168 2909.92 322.898 2914.54 327.694C2919.34 332.313 2923.07 337.819 2925.73 344.214C2928.58 350.608 2930 357.447 2930 364.729V480.898ZM2742.05 364.729V428.409H2877.48V364.729H2742.05Z" fill="white"/>
<path d="M129.983 432.405C122.518 432.405 115.409 430.984 108.656 428.142C102.08 425.123 96.3037 421.215 91.3273 416.419C86.3509 411.445 82.4409 405.673 79.5973 399.1C76.7536 392.351 75.3318 385.245 75.3318 377.785V268.544C75.3318 261.084 76.7536 254.068 79.5973 247.496C82.4409 240.746 86.3509 234.973 91.3273 230.177C96.3037 225.203 102.08 221.296 108.656 218.454C115.409 215.434 122.518 213.924 129.983 213.924H315.53C322.995 213.924 330.015 215.434 336.591 218.454C343.345 221.296 349.21 225.203 354.186 230.177C359.162 234.973 363.072 240.746 365.916 247.496C368.76 254.068 370.182 261.084 370.182 268.544V317.836H315.53V268.544H129.983V377.785H315.53C322.995 377.785 330.015 379.206 336.591 382.048C343.345 384.89 349.21 388.798 354.186 393.772C359.162 398.745 363.072 404.607 365.916 411.357C368.76 417.929 370.182 424.945 370.182 432.405V541.38C370.182 548.84 368.76 555.945 365.916 562.695C363.072 569.267 359.162 575.04 354.186 580.014C349.21 584.987 343.345 588.895 336.591 591.737C330.015 594.579 322.995 596 315.53 596H124.651C117.187 596 110.078 594.579 103.324 591.737C96.748 588.895 90.9718 584.987 85.9955 580.014C81.0191 575.04 77.1091 569.267 74.2655 562.695C71.4218 555.945 70 548.84 70 541.38V492.355H124.651V541.38H315.53V432.405H129.983Z" stroke="white" stroke-width="2" mask="url(#path-1-outside-1_168_1421)"/>
<path d="M672.112 364.729V596H619.594V364.729H499.361V596H447.109V312.241H499.361V362.332C499.716 355.404 501.316 348.921 504.16 342.881C507.003 336.664 510.736 331.336 515.356 326.895C520.155 322.277 525.665 318.724 531.885 316.237C538.106 313.573 544.77 312.241 551.879 312.241H619.594C626.525 312.241 633.101 313.573 639.321 316.237C645.542 318.724 651.051 322.277 655.85 326.895C660.649 331.336 664.47 336.664 667.313 342.881C670.335 348.921 671.934 355.404 672.112 362.332C672.467 355.404 673.978 348.921 676.644 342.881C679.488 336.664 683.22 331.336 687.841 326.895C692.64 322.277 698.149 318.724 704.37 316.237C710.59 313.573 717.255 312.241 724.364 312.241H792.078C799.365 312.241 806.207 313.662 812.606 316.504C819.004 319.168 824.513 322.898 829.134 327.694C833.933 332.313 837.665 337.819 840.331 344.214C843.175 350.608 844.596 357.447 844.596 364.729V596H792.078V364.729H672.112Z" stroke="white" stroke-width="2" mask="url(#path-1-outside-1_168_1421)"/>
<path d="M915.926 472.105C915.926 464.822 917.258 458.073 919.924 451.856C922.768 445.461 926.5 439.866 931.121 435.07C935.92 430.274 941.518 426.544 947.916 423.879C954.315 421.037 961.068 419.616 968.177 419.616H1103.61V364.729H932.188V312.241H1103.61C1110.89 312.241 1117.74 313.662 1124.13 316.504C1130.53 319.168 1136.04 322.898 1140.66 327.694C1145.46 332.313 1149.19 337.819 1151.86 344.214C1154.7 350.608 1156.12 357.447 1156.12 364.729V596H1103.61V548.041C1103.07 554.613 1101.3 560.83 1098.27 566.692C1095.25 572.553 1091.34 577.704 1086.54 582.145C1081.92 586.408 1076.59 589.783 1070.55 592.27C1064.51 594.757 1058.11 596 1051.35 596H968.177C961.068 596 954.315 594.668 947.916 592.003C941.518 589.161 935.92 585.431 931.121 580.813C926.5 576.017 922.768 570.422 919.924 564.027C917.258 557.633 915.926 550.794 915.926 543.511V472.105ZM968.177 543.511H1103.61V472.105H968.177V543.511Z" stroke="white" stroke-width="2" mask="url(#path-1-outside-1_168_1421)"/>
<path d="M1279.71 364.729V596H1227.45V312.241H1279.71V362.332C1280.06 355.404 1281.66 348.921 1284.5 342.881C1287.35 336.664 1291.08 331.336 1295.7 326.895C1300.5 322.277 1306.01 318.724 1312.23 316.237C1318.45 313.573 1325.11 312.241 1332.22 312.241H1387.94C1395.23 312.241 1401.98 313.662 1408.2 316.504C1414.6 319.168 1420.2 322.898 1425 327.694C1429.8 332.313 1433.53 337.819 1436.19 344.214C1439.04 350.608 1440.46 357.447 1440.46 364.729V412.689H1387.94V364.729H1279.71Z" stroke="white" stroke-width="2" mask="url(#path-1-outside-1_168_1421)"/>
<path d="M1472.87 312.241H1542.18V224.848H1594.7V312.241H1688.01V364.729H1594.7V543.511H1688.01V596H1594.7C1587.59 596 1580.84 594.668 1574.44 592.003C1568.04 589.161 1562.44 585.431 1557.64 580.813C1552.84 576.017 1549.02 570.422 1546.18 564.027C1543.51 557.633 1542.18 550.794 1542.18 543.511V364.729H1472.87V312.241Z" stroke="white" stroke-width="2" mask="url(#path-1-outside-1_168_1421)"/>
<path d="M1819.32 213.924V378.851L2001.67 213.924H2078.71L1871.84 401.232L2086.97 596H2009.93L1819.32 424.146V596H1764.67V213.924H1819.32Z" stroke="white" stroke-width="2" mask="url(#path-1-outside-1_168_1421)"/>
<path d="M2167.37 203V596H2115.12V203H2167.37Z" stroke="white" stroke-width="2" mask="url(#path-1-outside-1_168_1421)"/>
<path d="M2293.62 312.241V596H2241.1V312.241H2293.62ZM2238.43 203H2296.28V257.62H2238.43V203Z" stroke="white" stroke-width="2" mask="url(#path-1-outside-1_168_1421)"/>
<path d="M2618.74 596H2566.22V364.729H2419.86V596H2367.61V312.241H2419.86V362.332C2420.22 355.404 2421.82 348.921 2424.66 342.881C2427.5 336.664 2431.24 331.336 2435.86 326.895C2440.66 322.277 2446.17 318.724 2452.39 316.237C2458.61 313.573 2465.27 312.241 2472.38 312.241H2566.22C2573.51 312.241 2580.35 313.662 2586.75 316.504C2593.15 319.168 2598.66 322.898 2603.28 327.694C2608.08 332.313 2611.81 337.819 2614.47 344.214C2617.32 350.608 2618.74 357.447 2618.74 364.729V596Z" stroke="white" stroke-width="2" mask="url(#path-1-outside-1_168_1421)"/>
<path d="M2930 480.898H2742.05V543.511H2930V596H2742.05C2734.94 596 2728.19 594.668 2721.79 592.003C2715.39 589.161 2709.8 585.431 2705 580.813C2700.38 576.017 2696.64 570.422 2693.8 564.027C2691.13 557.633 2689.8 550.794 2689.8 543.511V364.729C2689.8 357.447 2691.13 350.608 2693.8 344.214C2696.64 337.819 2700.38 332.313 2705 327.694C2709.8 322.898 2715.39 319.168 2721.79 316.504C2728.19 313.662 2734.94 312.241 2742.05 312.241H2877.48C2884.77 312.241 2891.61 313.662 2898.01 316.504C2904.41 319.168 2909.92 322.898 2914.54 327.694C2919.34 332.313 2923.07 337.819 2925.73 344.214C2928.58 350.608 2930 357.447 2930 364.729V480.898ZM2742.05 364.729V428.409H2877.48V364.729H2742.05Z" stroke="white" stroke-width="2" mask="url(#path-1-outside-1_168_1421)"/>
</svg>
