<svg width="800" height="800" viewBox="0 0 800 800" fill="none" xmlns="http://www.w3.org/2000/svg">
<path d="M269.874 184.276C271.335 181.063 274.538 179 278.067 179H450.335C456.88 179 461.237 185.766 458.528 191.725L265.438 616.47C263.978 619.683 260.774 621.745 257.245 621.745H84.9777C78.432 621.745 74.0757 614.98 76.7846 609.021L269.874 184.276Z" fill="#0095EA"/>
<path d="M442.149 403.555C440.701 400.312 437.482 398.223 433.93 398.223H263.261C256.741 398.223 252.385 404.939 255.042 410.892L346.775 616.413C348.223 619.657 351.442 621.745 354.993 621.745H525.663C532.182 621.745 536.539 615.03 533.882 609.077L442.149 403.555Z" fill="#8BCFFF"/>
<path d="M535.88 186.391C537.348 183.196 540.542 181.149 544.057 181.149H714.629C721.19 181.149 725.546 187.945 722.806 193.907L631.312 392.982C629.844 396.176 626.65 398.223 623.134 398.223H452.563C446.001 398.223 441.645 391.427 444.385 385.465L535.88 186.391Z" fill="#8BCFFF"/>
</svg>
