<svg width="495" height="503" viewBox="0 0 495 503" fill="none" xmlns="http://www.w3.org/2000/svg">
<path d="M247.369 389.789C229.29 390.118 211.327 386.784 194.53 379.981C177.732 373.177 162.437 363.042 149.537 350.166C136.637 337.29 126.391 321.931 119.396 304.987C112.402 288.043 108.799 269.852 108.799 251.478C108.799 233.103 112.402 214.913 119.396 197.968C126.391 181.024 136.637 165.666 149.537 152.79C162.437 139.914 177.732 129.778 194.53 122.975C211.327 116.172 229.29 112.837 247.369 113.166V0C198.424 0.0262877 150.585 14.7989 109.901 42.45C69.2174 70.1011 37.515 109.389 18.8024 155.347C0.0897978 201.305 -4.7929 251.869 4.7717 300.647C14.3363 349.424 37.9188 394.225 72.5375 429.384C107.156 464.544 151.257 488.484 199.263 498.177C247.27 507.871 297.027 502.882 342.244 483.843C387.462 464.804 426.108 432.568 453.298 391.212C480.488 349.856 495 301.236 495 251.5H383.459C383.459 288.177 369.121 323.351 343.599 349.285C318.078 375.22 283.463 389.789 247.369 389.789Z" fill="#2354E6"/>
<path d="M247.369 389.789C229.29 390.118 211.327 386.784 194.53 379.981C177.732 373.177 162.437 363.042 149.537 350.166C136.637 337.29 126.391 321.931 119.396 304.987C112.402 288.043 108.799 269.852 108.799 251.478C108.799 233.103 112.402 214.913 119.396 197.968C126.391 181.024 136.637 165.666 149.537 152.79C162.437 139.914 177.732 129.778 194.53 122.975C211.327 116.172 229.29 112.837 247.369 113.166V0C198.424 0.0262877 150.585 14.7989 109.901 42.45C69.2174 70.1011 37.515 109.389 18.8024 155.347C0.0897978 201.305 -4.7929 251.869 4.7717 300.647C14.3363 349.424 37.9188 394.225 72.5375 429.384C107.156 464.544 151.257 488.484 199.263 498.177C247.27 507.871 297.027 502.882 342.244 483.843C387.462 464.804 426.108 432.568 453.298 391.212C480.488 349.856 495 301.236 495 251.5H383.459C383.459 288.177 369.121 323.351 343.599 349.285C318.078 375.22 283.463 389.789 247.369 389.789Z" fill="#2354E6"/>
<path d="M383.503 113.167H247.369V251.5H383.503V113.167Z" fill="#17E6A1"/>
</svg>
